Coordinates
version=1
nRows=16
nColumns=22
inDegrees=yes

Units are S.I. units (second, meters, Newtons, ...)
If the header above contains a line with 'inDegrees', this indicates whether rotational values are in degrees (yes) or radians (no).

endheader
time	pelvis_tilt	pelvis_list	pelvis_rotation	pelvis_tx	pelvis_ty	pelvis_tz	hip_flexion_r	hip_adduction_r	hip_rotation_r	knee_angle_r	ankle_angle_r	subtalar_angle_r	hip_flexion_l	hip_adduction_l	hip_rotation_l	knee_angle_l	ankle_angle_l	subtalar_angle_l	lumbar_extension	lumbar_bending	lumbar_rotation
      0.01000000	     -0.94046570	     -4.24302897	      1.41228435	     -1.68520890	      1.01567840	     -0.06515389	     -0.77455720	      2.77947039	     -3.74859854	     -9.33369309	      8.18475696	      2.05377743	     -1.30756016	     -8.04890190	    -11.94150116	     -8.53498001	      9.90048857	      0.73326272	     -0.61217405	      0.58197716	      0.17329639
      0.02000000	     -0.95505939	     -4.25184229	      1.35355552	     -1.68520898	      1.01566853	     -0.06509009	     -0.76015616	      2.78684110	     -3.70457273	     -9.32605344	      8.17919871	      2.06090209	     -1.30583845	     -8.05623008	    -12.00322599	     -8.53347661	      9.89748505	      0.73450455	     -0.58587408	      0.58445177	      0.15414143
      0.03000000	     -0.97665110	     -4.26725878	      1.28973741	     -1.68524021	      1.01564636	     -0.06502530	     -0.73398707	      2.80072545	     -3.65788616	     -9.32173690	      8.16738831	      2.06967457	     -1.29308080	     -8.07033865	    -12.06420721	     -8.53737563	      9.90750471	      0.73520345	     -0.55514223	      0.59687659	      0.12363207
      0.04000000	     -0.99915426	     -4.28542985	      1.22842974	     -1.68528350	      1.01561838	     -0.06496170	     -0.70562332	      2.81765990	     -3.61560269	     -9.31913885	      8.15790941	      2.07740095	     -1.27556018	     -8.08826282	    -12.12044520	     -8.54661259	      9.91774455	      0.73480926	     -0.52285890	      0.61235089	      0.07809790
      0.05000000	     -1.02647809	     -4.30847287	      1.16676236	     -1.68537092	      1.01557980	     -0.06490754	     -0.66855246	      2.83836914	     -3.57189722	     -9.31695990	      8.14752825	      2.08563995	     -1.24618009	     -8.11181463	    -12.17667437	     -8.56344133	      9.93377980	      0.73162360	     -0.49304199	      0.63841777	      0.02448189
      0.06000000	     -1.03480913	     -4.31844286	      1.11690943	     -1.68547450	      1.01556508	     -0.06487371	     -0.64628651	      2.84472222	     -3.55034630	     -9.32542299	      8.14222668	      2.08803184	     -1.24354701	     -8.11860177	    -12.20228021	     -8.56145414	      9.94202441	      0.72915903	     -0.48921899	      0.65103669	     -0.05016755
      0.07000000	     -1.06966319	     -4.35697353	      1.05785952	     -1.68560792	      1.01550262	     -0.06481118	     -0.59946696	      2.88322583	     -3.49940060	     -9.32097412	      8.13313759	      2.09713184	     -1.18587633	     -8.16386057	    -12.26914994	     -8.61103758	      9.96946700	      0.71591487	     -0.45568666	      0.70005263	     -0.11745355
      0.08000000	     -1.09581575	     -4.38211711	      1.00015047	     -1.68574911	      1.01545140	     -0.06475284	     -0.55274093	      2.90677029	     -3.45800246	     -9.33429348	      8.12695193	      2.10232792	     -1.14699343	     -8.19166330	    -12.31579479	     -8.64168431	      9.99529100	      0.70294089	     -0.43596555	      0.73553096	     -0.19326370
      0.09000000	     -1.09995939	     -4.38942343	      0.94597747	     -1.68587841	      1.01543448	     -0.06469757	     -0.52796975	      2.91130999	     -3.42952526	     -9.35243509	      8.12244833	      2.10343583	     -1.14567117	     -8.19712982	    -12.34255962	     -8.64480326	     10.00363391	      0.69837564	     -0.44308107	      0.75278146	     -0.27715362
      0.10000000	     -1.11850412	     -4.42034888	      0.87002587	     -1.68600883	      1.01538910	     -0.06459152	     -0.49198217	      2.94332528	     -3.35866723	     -9.36018619	      8.12529068	      2.10587283	     -1.10908823	     -8.23590361	    -12.42990805	     -8.69606994	     10.03162912	      0.67971655	     -0.43387712	      0.80012696	     -0.33579985
      0.11000000	     -1.12069726	     -4.42534800	      0.80509013	     -1.68611422	      1.01537596	     -0.06451468	     -0.46649206	      2.94608543	     -3.31956873	     -9.38513713	      8.11861645	      2.10640871	     -1.11471420	     -8.23864036	    -12.46433342	     -8.69850019	     10.04192583	      0.67490834	     -0.44409320	      0.82043321	     -0.41341019
      0.12000000	     -1.12745074	     -4.45109994	      0.70009210	     -1.68620824	      1.01535221	     -0.06434841	     -0.44016739	      2.97502708	     -3.21132871	     -9.40156508	      8.12559555	      2.10475038	     -1.10082745	     -8.27287266	    -12.59160392	     -8.74905620	     10.06963086	      0.65785741	     -0.44673417	      0.86401531	     -0.43502585
      0.13000000	     -1.12892494	     -4.46465974	      0.60062652	     -1.68630599	      1.01534243	     -0.06419673	     -0.41379237	      2.98964533	     -3.11960255	     -9.42747149	      8.12073454	      2.10208848	     -1.10531793	     -8.28957087	    -12.68582586	     -8.77156744	     10.09090634	      0.64913292	     -0.45990820	      0.89603848	     -0.46209811
      0.14000000	     -1.12441795	     -4.47724449	      0.50428867	     -1.68639826	      1.01534164	     -0.06404476	     -0.39573825	      3.00379769	     -3.03139732	     -9.45196233	      8.12201826	      2.09760188	     -1.11233440	     -8.30619583	    -12.78115149	     -8.80029254	     10.10925101	      0.64273214	     -0.48151914	      0.92832618	     -0.48809000
      0.15000000	     -1.11934616	     -4.49108788	      0.40554829	     -1.68650171	      1.01534360	     -0.06388843	     -0.37681679	      3.01916310	     -2.93826601	     -9.47682415	      8.11909952	      2.09249398	     -1.12024406	     -8.32439012	    -12.87833766	     -8.82807608	     10.13152626	      0.63733760	     -0.50753782	      0.96383473	     -0.50266146
      0.16000000	     -1.11274666	     -4.50607972	      0.31167648	     -1.68661475	      1.01535030	     -0.06373147	     -0.35925961	      3.03670801	     -2.84991526	     -9.50148290	      8.11728895	      2.08693897	     -1.12370894	     -8.34510550	    -12.97000110	     -8.86467143	     10.15164112	      0.63270847	     -0.53691212	      0.99902332	     -0.51647831
